<svg xmlns="http://www.w3.org/2000/svg" width="96" height="96" fill="none" viewBox="0 0 96 96" id="cutlery">
  <path stroke="#000" stroke-width="5" d="M25.3626 78.57L26.6139 54.4479C26.8238 50.4007 22 45.6132 22 41.5605L22 38.0605C22 37.4746 22.4477 36.9997 23 36.9997H41C41.5523 36.9997 42 37.4746 42 38.0605L42 41.5605C42 45.6132 37.1762 50.4007 37.3861 54.4479L38.6374 78.57C38.8345 82.3707 35.8059 85.5605 32 85.5605C28.1941 85.5605 25.1655 82.3707 25.3626 78.57Z"></path>
  <path stroke="#000" stroke-linecap="round" stroke-width="5" d="M23 9L22 37M32 9L32 36M41 9L42 37"></path>
  <path stroke="#000" stroke-width="5" d="M56 56H66.5L68.7949 78.9485C69.1724 82.724 66.2076 86 62.4133 86 58.8713 86 56 83.1287 56 79.5867L56 56zM68 56H56L56 10.9355C56 9.86655 56.8665 9 57.9355 9 65.1508 9 71 14.8492 71 22.0645L71 53C71 54.6569 69.6569 56 68 56z"></path>
</svg>
