<svg xmlns="http://www.w3.org/2000/svg" width="96" height="96" fill="none" viewBox="0 0 96 96" id="double-bed">
  <path stroke="#000" stroke-width="5" d="M10 54C10 49.0294 14.0294 45 19 45H77C81.9706 45 86 49.0294 86 54V64C86 65.1046 85.1046 66 84 66H12C10.8954 66 10 65.1046 10 64V54zM6 68C6 66.8954 6.89543 66 8 66H88C89.1046 66 90 66.8954 90 68V73C90 74.1046 89.1046 75 88 75H8C6.89543 75 6 74.1046 6 73V68zM20 28C20 23.0294 24.0294 19 29 19H67C71.9706 19 76 23.0294 76 28V43C76 44.1046 75.1046 45 74 45H22C20.8954 45 20 44.1046 20 43V28z"></path>
  <path stroke="#000" stroke-width="5" d="M28 38C28 36.3431 29.3431 35 31 35H41C42.6569 35 44 36.3431 44 38V43C44 44.1046 43.1046 45 42 45H30C28.8954 45 28 44.1046 28 43V38zM52 38C52 36.3431 53.3431 35 55 35H65C66.6569 35 68 36.3431 68 38V43C68 44.1046 67.1046 45 66 45H54C52.8954 45 52 44.1046 52 43V38z"></path>
  <path stroke="#000" stroke-linecap="round" stroke-width="5" d="M74 75L74 78M21 75L21 78"></path>
</svg>
