<svg xmlns="http://www.w3.org/2000/svg" width="96" height="96" fill="none" viewBox="0 0 96 96" id="room-key">
  <path fill="#000" d="M55.4094 80.1829L57.9094 80.1828L55.4094 80.1829ZM55.4075 48.8736L52.9075 48.8737L55.4075 48.8736ZM65.7054 81.2904L63.9182 79.5423L63.9182 79.5423L65.7054 81.2904ZM61.3234 85.7706L59.5362 84.0226L59.5362 84.0226L61.3234 85.7706ZM60.2402 85.7706L58.4529 87.5187H58.4529L60.2402 85.7706ZM55.8581 81.2903L57.6454 79.5423L57.6453 79.5423L55.8581 81.2903ZM66.1526 48.8745L63.6526 48.8749L66.1526 48.8745ZM66.1541 80.1829H63.6541H66.1541ZM73.7279 41.4166L75.5152 43.1647L73.7279 41.4166ZM73.7279 15.3902L75.5152 13.6422L73.7279 15.3902ZM48.2721 15.3902L50.0593 17.1383H50.0593L48.2721 15.3902ZM48.2721 41.4166L50.0593 39.6686L48.2721 41.4166ZM69.2596 44.3129L70.2604 46.6038H70.2604L69.2596 44.3129ZM52.3238 44.2532L51.2371 46.5047H51.2371L52.3238 44.2532ZM64.3741 78.0675C65.3396 79.0546 66.9224 79.0722 67.9095 78.1067C68.8965 77.1413 68.9141 75.5585 67.9486 74.5714L64.3741 78.0675ZM63.9795 74.0886L65.7667 72.3406L63.9795 74.0886ZM63.9795 72.9811L65.7667 74.7292V74.7292L63.9795 72.9811ZM65.6198 71.3041L63.8325 69.556H63.8325L65.6198 71.3041ZM65.6198 70.1965L63.8325 71.9446L65.6198 70.1965ZM63.4688 67.9974L65.256 66.2493L63.4688 67.9974ZM63.4688 66.8899L61.6816 65.1418L63.4688 66.8899ZM65.9371 64.3663L67.7243 66.1143L65.9371 64.3663ZM68.6614 53.6156C68.6614 52.2349 67.5421 51.1156 66.1614 51.1156C64.7807 51.1156 63.6614 52.2349 63.6614 53.6156H68.6614ZM57.9094 80.1828L57.9075 48.8734L52.9075 48.8737L52.9094 80.1831L57.9094 80.1828ZM63.9182 79.5423L59.5362 84.0226L63.1107 87.5187L67.4927 83.0385L63.9182 79.5423ZM62.0274 84.0226L57.6454 79.5423L54.0709 83.0384L58.4529 87.5187L62.0274 84.0226ZM63.6526 48.8749L63.6541 56.9311L68.6541 56.9302L68.6526 48.874L63.6526 48.8749ZM63.6541 76.2997V80.1829H68.6541V76.2997H63.6541ZM75.5152 43.1647C83.4949 35.0061 83.4949 21.8008 75.5152 13.6422L71.9407 17.1383C78.0198 23.3537 78.0198 33.4532 71.9407 39.6686L75.5152 43.1647ZM50.0593 17.1383C56.1082 10.9539 65.8918 10.9539 71.9407 17.1383L75.5152 13.6422C67.5051 5.45261 54.4949 5.45261 46.4848 13.6422L50.0593 17.1383ZM50.0593 39.6686C43.9802 33.4532 43.9802 23.3537 50.0593 17.1383L46.4848 13.6422C38.5051 21.8008 38.5051 35.0061 46.4848 43.1647L50.0593 39.6686ZM71.9407 39.6686C71.0102 40.6199 69.7466 41.372 68.2588 42.0219L70.2604 46.6038C72.0378 45.8274 73.9523 44.7626 75.5152 43.1647L71.9407 39.6686ZM53.4106 42.0018C52.1434 41.3902 51.0213 40.6521 50.0593 39.6686L46.4848 43.1647C47.9472 44.6599 49.5868 45.7081 51.2371 46.5047L53.4106 42.0018ZM59.5362 84.0226C60.2176 83.3258 61.346 83.3258 62.0274 84.0226L58.4529 87.5187C59.7327 88.8271 61.8309 88.8271 63.1107 87.5187L59.5362 84.0226ZM52.9094 80.1831C52.9095 81.2438 53.3211 82.2719 54.0709 83.0384L57.6453 79.5423C57.8206 79.7214 57.9094 79.9528 57.9094 80.1828L52.9094 80.1831ZM67.4927 83.0385C68.2425 82.2718 68.6541 81.2436 68.6541 80.1829H63.6541C63.6541 79.9529 63.743 79.7215 63.9182 79.5423L67.4927 83.0385ZM68.6526 48.874C68.6525 47.959 69.242 47.0487 70.2604 46.6038L68.2588 42.0219C65.6379 43.1669 63.652 45.7436 63.6526 48.8749L68.6526 48.874ZM57.9075 48.8734C57.9074 45.7288 55.9071 43.2068 53.4106 42.0018L51.2371 46.5047C52.3187 47.0267 52.9075 47.9728 52.9075 48.8737L57.9075 48.8734ZM62.1918 23.0562C61.5272 23.7357 60.4732 23.7357 59.8086 23.0562L56.2341 26.5523C58.8599 29.2369 63.1405 29.2369 65.7663 26.5523L62.1918 23.0562ZM65.7663 26.5523C68.3618 23.8986 68.3618 19.6186 65.7663 16.9649L62.1918 20.461C62.8867 21.1714 62.8867 22.3457 62.1918 23.0562L65.7663 26.5523ZM59.8086 20.461C60.4732 19.7815 61.5272 19.7815 62.1918 20.461L65.7663 16.9649C63.1405 14.2803 58.8599 14.2803 56.2341 16.9649L59.8086 20.461ZM59.8086 23.0562C59.1137 22.3457 59.1137 21.1714 59.8086 20.461L56.2341 16.9649C53.6385 19.6186 53.6385 23.8986 56.2341 26.5523L59.8086 23.0562ZM67.9486 74.5714L65.7667 72.3406L62.1922 75.8367L64.3741 78.0675L67.9486 74.5714ZM65.7667 74.7292L67.407 73.0521L63.8325 69.556L62.1922 71.2331L65.7667 74.7292ZM67.407 68.4485L65.256 66.2493L61.6816 69.7454L63.8325 71.9446L67.407 68.4485ZM65.256 68.6379L67.7243 66.1143L64.1498 62.6182L61.6816 65.1418L65.256 68.6379ZM68.6614 63.8125V53.6156H63.6614V63.8125H68.6614ZM67.7243 66.1143C68.3305 65.4946 68.6614 64.6656 68.6614 63.8125H63.6614C63.6614 63.3749 63.8309 62.9442 64.1498 62.6182L67.7243 66.1143ZM65.256 66.2493C65.9073 66.9151 65.9073 67.9721 65.256 68.6379L61.6816 65.1418C60.4321 66.4192 60.4321 68.468 61.6816 69.7454L65.256 66.2493ZM67.407 73.0521C68.6565 71.7747 68.6565 69.726 67.407 68.4485L63.8325 71.9446C63.1813 71.2788 63.1813 70.2218 63.8325 69.556L67.407 73.0521ZM65.7667 72.3406C66.4179 73.0064 66.4179 74.0634 65.7667 74.7292L62.1922 71.2331C60.9428 72.5105 60.9428 74.5592 62.1922 75.8367L65.7667 72.3406Z"></path>
  <path stroke="#000" stroke-width="5" d="M22 86L38 86C40.7614 86 43 83.7614 43 81L43 48.7139C43 47.1863 42.3017 45.7425 41.1041 44.7942L33.1035 38.4584C31.2847 37.018 28.7138 37.018 26.8951 38.4585L18.8956 44.7942C17.6982 45.7426 17 47.1863 17 48.7137L17 81C17 83.7614 19.2386 86 22 86Z"></path>
  <path stroke="#000" stroke-linecap="round" stroke-width="5" d="M30 36V36C30 28.8203 35.8203 23 43 23V23M30 52L30 73"></path>
</svg>
