<svg xmlns="http://www.w3.org/2000/svg" width="96" height="96" fill="none" viewBox="0 0 96 96" id="swimming">
  <path stroke="#000" stroke-width="5" d="M11 33H85V81C85 84.3137 82.3137 87 79 87H17C13.6863 87 11 84.3137 11 81V33Z"></path>
  <rect width="84" height="9" x="6" y="24" stroke="#000" stroke-width="5" rx="4.5"></rect>
  <path stroke="#000" stroke-linecap="round" stroke-width="5" d="M58 23L58 17.2353C58 12.6871 61.3579 9 65.5 9 69.6421 9 73 12.6871 73 17.2353L73 72.5M33 23L33 17.2353C33 12.6871 36.3579 9 40.5 9 44.6421 9 48 12.6871 48 17.2353L48 72.5M51 43L73 43M51 53L73 53M48 62L73 62"></path>
  <path stroke="#000" stroke-linecap="round" stroke-width="5" d="M11 76L17.0815 73.4661C20.8397 71.9001 25.0933 72.0466 28.7348 73.8674L29 74C32.7771 75.8885 37.2229 75.8885 41 74V74C44.7771 72.1115 49.2229 72.1115 53 74V74C56.7771 75.8885 61.2229 75.8885 65 74L65.2652 73.8674C68.9068 72.0466 73.1603 71.9001 76.9185 73.4661L83 76"></path>
</svg>
